# xmcd CD database file
#
# Track frame offsets:
#	150
#	22075
#	41525
#	60387
#	78295
#	105735
#	130767
#	153910
#	172072
#	192482
#
# Disc length: 2871 seconds
#
# Revision: 0
# Processed by: cddbd v1.5.1PL2 Copyright (c) Steve Scherf et al.
# Submitted via: CDex 1.51
#
DISCID=7d0b350a
DTITLE=JHETT - a.k.a. YAKKO for AQUARIUS - Jhett Black Edition
DYEAR=2005
DGENRE=R&B
TTITLE0=Get Ready -Nite 2 Remember- feat. Sowelu and Big-O [Notorious D.O.I. Remix]
TTITLE1=Do or Die feat. 安室奈美恵 [BACH LOGIC Remix feat. NORISHAM-X]
TTITLE2=Oh Boy feat. Heartsdales [DJ WATARAI Remix]
TTITLE3=Sweetest dub feat. LISA and SAIGENJI
TTITLE4=Just Go feat. KODA KUMI [COLDFEET Remix]
TTITLE5=Heart Breaker feat. RINKO URASHIMA [Sunaga t Experience Remix]
TTITLE6=Leave It To Fate feat. LORI FINE [Yukihiro Fukutomi Remix]
TTITLE7=Get Out feat. YUKI [Slow Down Remix]
TTITLE8=Call U Every Nite feat. MICHIKO [Remix]
TTITLE9=Everything Inside of Me feat. Lena Park [Remix]
EXTD=YEAR: 2005
EXTT0=
EXTT1=
EXTT2=
EXTT3=
EXTT4=
EXTT5=
EXTT6=
EXTT7=
EXTT8=
EXTT9=
PLAYORDER=
